<svg height="512" viewBox="0 0 64 64" width="512" xmlns="http://www.w3.org/2000/svg"><g id="_01_Upload" data-name="01 Upload"><path d="m44.644 15.529-3.281-8.029h-18.726l-3.281 8.029h-16.356v40.971h58v-40.971zm-.234 24.5h-8.41v8.442h-8v-8.442h-8.41v-8.029h8.41v-8.441h8v8.441h8.41z" fill="#4370ff"/><path d="m17.59 38.029v4h8.41v8.442h12v-8.442h8.41v-12.029h-8.41v-8.441h-12v8.441h-8.41v4h12.41v-8.441h4v8.441h8.41v4.029h-8.41v8.442h-4v-8.442z"/><path d="m45.987 13.529-3.28-8.029h-21.414l-3.28 8.029h-17.013v20.471h4v-16.471h15.699l3.281-8.029h16.04l3.281 8.029h15.699v36.971h-54v-16.471h-4v20.471h62v-44.971z"/></g></svg>